<svg xmlns="http://www.w3.org/2000/svg" viewBox="0 0 393 852" fill="none">
  <defs>
    <linearGradient id="bg" x1="196.5" x2="196.5" y1="0" y2="852" gradientUnits="userSpaceOnUse">
      <stop stop-color="#1A2336"/>
      <stop offset="0.58" stop-color="#273146"/>
      <stop offset="1" stop-color="#39445C"/>
    </linearGradient>
    <linearGradient id="water" x1="196.5" x2="196.5" y1="120" y2="454" gradientUnits="userSpaceOnUse">
      <stop stop-color="#223047"/>
      <stop offset=".55" stop-color="#172337"/>
      <stop offset="1" stop-color="#0E1725"/>
    </linearGradient>
    <linearGradient id="floor" x1="196.5" x2="196.5" y1="454" y2="852" gradientUnits="userSpaceOnUse">
      <stop stop-color="#52607C"/>
      <stop offset="1" stop-color="#414E67"/>
    </linearGradient>
    <radialGradient id="moon" cx="0" cy="0" r="1" gradientTransform="translate(238 153) rotate(90) scale(148 104)" gradientUnits="userSpaceOnUse">
      <stop stop-color="#DDEAFF" stop-opacity=".86"/>
      <stop offset="1" stop-color="#DDEAFF" stop-opacity="0"/>
    </radialGradient>
  </defs>
  <rect width="393" height="852" fill="url(#bg)"/>
  <rect width="393" height="852" fill="url(#moon)"/>
  <rect x="58" y="86" width="277" height="396" rx="16" fill="#DDE3EE"/>
  <rect x="73" y="101" width="247" height="364" rx="6" fill="url(#water)"/>
  <path fill="#D7E7FF" fill-opacity=".2" d="M73 126c28-19 52-30 96-28 51 2 98 34 151 28v118H73V126Z"/>
  <path fill="#DDEBFF" fill-opacity=".3" d="M73 312c23-7 49-8 78-1 34 8 71 19 104 16 20-2 40-8 65-6v19H73v-28Z"/>
  <path stroke="#EEF5FF" stroke-linecap="round" stroke-width="3.5" d="M121 336c18 4 39 3 58-1m26 9c15 2 26 2 39 0"/>
  <rect x="0" y="475" width="393" height="377" fill="url(#floor)"/>
  <rect x="0" y="475" width="393" height="104" fill="#46546D"/>
  <rect x="272" y="540" width="78" height="176" rx="12" fill="#4A566E"/>
  <rect x="283" y="554" width="58" height="143" rx="8" fill="#53617C"/>
  <rect x="285" y="682" width="54" height="8" rx="4" fill="#F0C79B"/>
  <rect x="252" y="470" width="89" height="24" rx="10" fill="#566783"/>
  <circle cx="85" cy="145" r="2" fill="#EDF4FF"/>
  <circle cx="145" cy="118" r="1.5" fill="#EDF4FF" fill-opacity=".72"/>
  <circle cx="286" cy="166" r="1.5" fill="#EDF4FF" fill-opacity=".64"/>
</svg>
